<svg width="344" height="213" viewBox="0 0 344 213" fill="none" xmlns="http://www.w3.org/2000/svg">
<g id="Logo AquariumOceanic">
<g id="golfinho2 1" clip-path="url(#clip0_7_84)" filter="url(#filter0_d_7_84)">
<g id="layer1">
<g id="layer1-6">
<g id="g39">
<path id="path53" d="M90.6965 126.932C97.1066 122.033 101.23 112.758 100.251 105.441C100.112 104.396 100.167 103.514 100.378 103.423C119.043 95.3493 140.287 90.0156 159.177 88.6602C169.691 87.9057 177.619 88.1772 186.663 89.6015C191.535 90.3688 192.743 90.6667 193.932 91.3936C195.913 92.6047 196.826 94.2536 196.461 95.9621C196.084 97.7275 192.871 102.264 190.17 104.844C189.017 105.946 188.037 107.017 187.993 107.224C187.868 107.81 189.487 108.337 192.143 108.575C197.512 109.054 204.126 105.926 208.886 100.658C210.211 99.1907 211.667 97.8782 212.121 97.7408C214.02 97.1667 222.697 100.017 231.128 103.983C235.337 105.963 237.05 106.915 242.645 110.388C250.657 115.361 254.233 116.601 256.731 115.272C259.601 113.745 258.682 110.786 253.946 106.309C252.39 104.837 250.969 103.301 250.788 102.895C250.608 102.49 250.442 100.572 250.419 98.633C250.37 94.519 249.881 91.8184 248.664 88.9469C244.193 78.3939 228.372 65.6379 210.255 57.9794C203.875 55.2823 198.924 53.6895 189.541 51.316L187.055 50.687L184.8 47.7443C182.118 44.2439 180.574 42.8455 178.103 41.6803C175.892 40.6377 171.84 39.9163 170.446 40.317C169.141 40.6922 169.142 41.3672 170.452 44.0938C172.186 47.704 171.21 49.6314 167.19 50.5374C157.363 52.7517 151.026 54.8322 143.894 58.1856C128.015 65.651 113.59 76.768 99.757 92.1999L95.649 96.783L93.9803 95.73C89.1332 92.6714 80.5806 91.3303 73.6212 92.5376C70.9735 92.9969 68.8915 93.7367 68.4687 94.3684C67.7712 95.4104 68.641 95.8612 72.6922 96.5577C77.02 97.3017 80.1836 98.658 83.3737 101.137C85.7832 103.009 88.674 107.229 89.6358 110.278C90.9118 114.323 90.9382 116.88 89.7477 121.108C87.8468 127.859 87.9242 127.352 88.7557 127.608C89.2466 127.759 89.922 127.524 90.6965 126.932L90.6965 126.932ZM240.154 96.9028C239.397 95.9672 239.682 95.0528 240.879 94.5797C242.737 93.8453 244.057 95.7029 242.647 97.0666C241.781 97.9042 240.919 97.8476 240.154 96.9028Z" fill="#93A9CD"/>
</g>
</g>
</g>
</g>
<g id="AquariumOceanic">
<path d="M2.48403 188.438C1.81203 188.438 1.29603 188.15 0.936031 187.574C0.576031 186.998 0.540031 186.386 0.828031 185.738L10.944 161.582C11.304 160.742 11.892 160.322 12.708 160.322C13.572 160.322 14.16 160.742 14.472 161.582L24.624 185.81C24.888 186.482 24.84 187.094 24.48 187.646C24.144 188.174 23.628 188.438 22.932 188.438C22.572 188.438 22.224 188.342 21.888 188.15C21.576 187.934 21.348 187.646 21.204 187.286L19.188 182.246H6.26403L4.21203 187.286C4.04403 187.67 3.79203 187.958 3.45603 188.15C3.14403 188.342 2.82003 188.438 2.48403 188.438ZM7.52403 179.15H17.928L12.78 166.334L7.52403 179.15ZM202.748 188.798C200.636 188.798 198.704 188.45 196.952 187.754C195.2 187.034 193.688 186.038 192.416 184.766C191.168 183.47 190.196 181.946 189.5 180.194C188.804 178.418 188.456 176.474 188.456 174.362C188.456 172.25 188.804 170.318 189.5 168.566C190.196 166.814 191.168 165.302 192.416 164.03C193.688 162.734 195.2 161.738 196.952 161.042C198.704 160.322 200.636 159.962 202.748 159.962C204.86 159.962 206.78 160.322 208.508 161.042C210.26 161.738 211.772 162.734 213.044 164.03C214.316 165.302 215.3 166.814 215.996 168.566C216.692 170.318 217.04 172.25 217.04 174.362C217.04 176.474 216.692 178.418 215.996 180.194C215.3 181.946 214.316 183.47 213.044 184.766C211.772 186.038 210.26 187.034 208.508 187.754C206.78 188.45 204.86 188.798 202.748 188.798ZM202.748 185.414C204.836 185.414 206.684 184.934 208.292 183.974C209.9 182.99 211.16 181.67 212.072 180.014C212.984 178.334 213.44 176.45 213.44 174.362C213.44 172.274 212.984 170.402 212.072 168.746C211.16 167.066 209.9 165.746 208.292 164.786C206.684 163.826 204.836 163.346 202.748 163.346C200.66 163.346 198.812 163.826 197.204 164.786C195.596 165.746 194.336 167.066 193.424 168.746C192.512 170.402 192.056 172.274 192.056 174.362C192.056 176.45 192.512 178.334 193.424 180.014C194.336 181.67 195.596 182.99 197.204 183.974C198.812 184.934 200.66 185.414 202.748 185.414Z" fill="#0500FF"/>
<path d="M45.5445 196.862C45.0165 196.862 44.5725 196.682 44.2125 196.322C43.8765 195.986 43.7085 195.554 43.7085 195.026V185.306C42.8925 186.314 41.8845 187.118 40.6845 187.718C39.4845 188.294 38.1765 188.582 36.7605 188.582C35.0085 188.582 33.4365 188.15 32.0445 187.286C30.6525 186.398 29.5485 185.21 28.7325 183.722C27.9405 182.21 27.5445 180.506 27.5445 178.61C27.5445 176.714 27.9765 175.01 28.8405 173.498C29.7285 171.986 30.9165 170.798 32.4045 169.934C33.9165 169.046 35.6085 168.602 37.4805 168.602C39.3525 168.602 41.0325 169.046 42.5205 169.934C44.0085 170.798 45.1845 171.986 46.0485 173.498C46.9365 175.01 47.3805 176.714 47.3805 178.61V195.026C47.3805 195.554 47.2125 195.986 46.8765 196.322C46.5405 196.682 46.0965 196.862 45.5445 196.862ZM37.4805 185.342C38.7045 185.342 39.7965 185.054 40.7565 184.478C41.7165 183.878 42.4725 183.074 43.0245 182.066C43.5765 181.034 43.8525 179.882 43.8525 178.61C43.8525 177.314 43.5765 176.162 43.0245 175.154C42.4725 174.122 41.7165 173.318 40.7565 172.742C39.7965 172.142 38.7045 171.842 37.4805 171.842C36.2805 171.842 35.1885 172.142 34.2045 172.742C33.2445 173.318 32.4765 174.122 31.9005 175.154C31.3485 176.162 31.0725 177.314 31.0725 178.61C31.0725 179.882 31.3485 181.034 31.9005 182.066C32.4765 183.074 33.2445 183.878 34.2045 184.478C35.1885 185.054 36.2805 185.342 37.4805 185.342ZM62.145 188.618C60.489 188.618 59.001 188.27 57.681 187.574C56.385 186.854 55.353 185.81 54.585 184.442C53.841 183.074 53.469 181.394 53.469 179.402V170.546C53.469 170.018 53.637 169.586 53.973 169.25C54.333 168.89 54.777 168.71 55.305 168.71C55.833 168.71 56.265 168.89 56.601 169.25C56.961 169.586 57.141 170.018 57.141 170.546V179.402C57.141 181.442 57.681 182.942 58.761 183.902C59.865 184.838 61.233 185.306 62.865 185.306C63.897 185.306 64.809 185.102 65.601 184.694C66.417 184.286 67.065 183.734 67.545 183.038C68.025 182.342 68.265 181.562 68.265 180.698V170.546C68.265 169.994 68.433 169.55 68.769 169.214C69.129 168.878 69.573 168.71 70.101 168.71C70.653 168.71 71.097 168.878 71.433 169.214C71.769 169.55 71.937 169.994 71.937 170.546V186.602C71.937 187.13 71.769 187.574 71.433 187.934C71.097 188.27 70.653 188.438 70.101 188.438C69.573 188.438 69.129 188.27 68.769 187.934C68.433 187.574 68.265 187.13 68.265 186.602V186.206C67.521 186.95 66.621 187.538 65.565 187.97C64.509 188.402 63.369 188.618 62.145 188.618ZM86.6121 188.582C84.8601 188.582 83.2881 188.15 81.8961 187.286C80.5041 186.398 79.4001 185.21 78.5841 183.722C77.7921 182.21 77.3961 180.506 77.3961 178.61C77.3961 176.714 77.8281 175.01 78.6921 173.498C79.5801 171.986 80.7681 170.798 82.2561 169.934C83.7681 169.046 85.4601 168.602 87.3321 168.602C89.2041 168.602 90.8841 169.046 92.3721 169.934C93.8601 170.798 95.0361 171.986 95.9001 173.498C96.7881 175.01 97.2321 176.714 97.2321 178.61V186.638C97.2321 187.166 97.0521 187.61 96.6921 187.97C96.3561 188.306 95.9241 188.474 95.3961 188.474C94.8681 188.474 94.4241 188.306 94.0641 187.97C93.7281 187.61 93.5601 187.166 93.5601 186.638V185.306C92.7201 186.314 91.7001 187.118 90.5001 187.718C89.3241 188.294 88.0281 188.582 86.6121 188.582ZM87.3321 185.342C88.5561 185.342 89.6481 185.054 90.6081 184.478C91.5681 183.878 92.3241 183.074 92.8761 182.066C93.4281 181.034 93.7041 179.882 93.7041 178.61C93.7041 177.314 93.4281 176.162 92.8761 175.154C92.3241 174.122 91.5681 173.318 90.6081 172.742C89.6481 172.142 88.5561 171.842 87.3321 171.842C86.1321 171.842 85.0401 172.142 84.0561 172.742C83.0961 173.318 82.3281 174.122 81.7521 175.154C81.2001 176.162 80.9241 177.314 80.9241 178.61C80.9241 179.882 81.2001 181.034 81.7521 182.066C82.3281 183.074 83.0961 183.878 84.0561 184.478C85.0401 185.054 86.1321 185.342 87.3321 185.342ZM104.497 188.438C103.297 188.438 102.697 187.838 102.697 186.638V170.546C102.697 169.346 103.297 168.746 104.497 168.746C105.697 168.746 106.297 169.346 106.297 170.546V171.23C107.017 170.39 107.893 169.73 108.925 169.25C109.981 168.77 111.121 168.53 112.345 168.53C113.785 168.53 114.853 168.77 115.549 169.25C116.269 169.706 116.545 170.258 116.377 170.906C116.257 171.41 116.017 171.746 115.657 171.914C115.297 172.058 114.877 172.082 114.397 171.986C112.861 171.674 111.481 171.65 110.257 171.914C109.033 172.178 108.061 172.67 107.341 173.39C106.645 174.11 106.297 175.022 106.297 176.126V186.638C106.297 187.838 105.697 188.438 104.497 188.438ZM122.401 188.438C121.873 188.438 121.429 188.27 121.069 187.934C120.733 187.574 120.565 187.13 120.565 186.602V170.582C120.565 170.03 120.733 169.586 121.069 169.25C121.429 168.914 121.873 168.746 122.401 168.746C122.953 168.746 123.397 168.914 123.733 169.25C124.069 169.586 124.237 170.03 124.237 170.582V186.602C124.237 187.13 124.069 187.574 123.733 187.934C123.397 188.27 122.953 188.438 122.401 188.438ZM122.401 165.542C121.753 165.542 121.189 165.314 120.709 164.858C120.253 164.378 120.025 163.814 120.025 163.166C120.025 162.518 120.253 161.966 120.709 161.51C121.189 161.03 121.753 160.79 122.401 160.79C123.049 160.79 123.601 161.03 124.057 161.51C124.537 161.966 124.777 162.518 124.777 163.166C124.777 163.814 124.537 164.378 124.057 164.858C123.601 165.314 123.049 165.542 122.401 165.542ZM139.348 188.618C137.692 188.618 136.204 188.27 134.884 187.574C133.588 186.854 132.556 185.81 131.788 184.442C131.044 183.074 130.672 181.394 130.672 179.402V170.546C130.672 170.018 130.84 169.586 131.176 169.25C131.536 168.89 131.98 168.71 132.508 168.71C133.036 168.71 133.468 168.89 133.804 169.25C134.164 169.586 134.344 170.018 134.344 170.546V179.402C134.344 181.442 134.884 182.942 135.964 183.902C137.068 184.838 138.436 185.306 140.068 185.306C141.1 185.306 142.012 185.102 142.804 184.694C143.62 184.286 144.268 183.734 144.748 183.038C145.228 182.342 145.468 181.562 145.468 180.698V170.546C145.468 169.994 145.636 169.55 145.972 169.214C146.332 168.878 146.776 168.71 147.304 168.71C147.856 168.71 148.3 168.878 148.636 169.214C148.972 169.55 149.14 169.994 149.14 170.546V186.602C149.14 187.13 148.972 187.574 148.636 187.934C148.3 188.27 147.856 188.438 147.304 188.438C146.776 188.438 146.332 188.27 145.972 187.934C145.636 187.574 145.468 187.13 145.468 186.602V186.206C144.724 186.95 143.824 187.538 142.768 187.97C141.712 188.402 140.572 188.618 139.348 188.618ZM157.443 188.474C156.915 188.474 156.471 188.306 156.111 187.97C155.775 187.61 155.607 187.166 155.607 186.638V170.618C155.607 170.066 155.775 169.622 156.111 169.286C156.471 168.95 156.915 168.782 157.443 168.782C157.995 168.782 158.439 168.95 158.775 169.286C159.111 169.622 159.279 170.042 159.279 170.546C159.903 169.922 160.647 169.442 161.511 169.106C162.375 168.746 163.311 168.566 164.319 168.566C166.839 168.566 168.735 169.514 170.007 171.41C170.703 170.522 171.591 169.826 172.671 169.322C173.751 168.818 174.963 168.566 176.307 168.566C178.371 168.566 180.051 169.238 181.347 170.582C182.643 171.926 183.291 173.846 183.291 176.342V186.638C183.291 187.166 183.123 187.61 182.787 187.97C182.451 188.306 182.007 188.474 181.455 188.474C180.927 188.474 180.483 188.306 180.123 187.97C179.787 187.61 179.619 187.166 179.619 186.638V176.342C179.619 174.83 179.247 173.714 178.503 172.994C177.759 172.25 176.787 171.878 175.587 171.878C174.339 171.878 173.307 172.31 172.491 173.174C171.699 174.038 171.303 175.142 171.303 176.486V186.638C171.303 187.166 171.135 187.61 170.799 187.97C170.463 188.306 170.019 188.474 169.467 188.474C168.939 188.474 168.495 188.306 168.135 187.97C167.799 187.61 167.631 187.166 167.631 186.638V176.342C167.631 174.83 167.259 173.714 166.515 172.994C165.771 172.25 164.799 171.878 163.599 171.878C162.351 171.878 161.319 172.31 160.503 173.174C159.687 174.038 159.279 175.142 159.279 176.486V186.638C159.279 187.166 159.111 187.61 158.775 187.97C158.439 188.306 157.995 188.474 157.443 188.474ZM231.473 188.582C229.553 188.582 227.837 188.15 226.325 187.286C224.837 186.398 223.661 185.21 222.797 183.722C221.957 182.21 221.537 180.506 221.537 178.61C221.537 176.666 221.957 174.938 222.797 173.426C223.637 171.914 224.789 170.738 226.253 169.898C227.717 169.034 229.397 168.602 231.293 168.602C234.125 168.602 236.477 169.682 238.349 171.842C238.685 172.226 238.805 172.622 238.709 173.03C238.613 173.438 238.349 173.798 237.917 174.11C237.581 174.35 237.209 174.434 236.801 174.362C236.393 174.266 236.021 174.05 235.685 173.714C234.509 172.466 233.045 171.842 231.293 171.842C229.445 171.842 227.945 172.466 226.793 173.714C225.641 174.938 225.065 176.57 225.065 178.61C225.065 179.906 225.329 181.058 225.857 182.066C226.409 183.074 227.165 183.878 228.125 184.478C229.085 185.054 230.201 185.342 231.473 185.342C233.105 185.342 234.425 184.922 235.433 184.082C235.817 183.77 236.213 183.602 236.621 183.578C237.029 183.53 237.389 183.638 237.701 183.902C238.109 184.238 238.337 184.622 238.385 185.054C238.433 185.462 238.289 185.834 237.953 186.17C236.225 187.778 234.065 188.582 231.473 188.582ZM253.418 188.582C251.426 188.582 249.65 188.162 248.09 187.322C246.554 186.458 245.342 185.282 244.454 183.794C243.59 182.282 243.158 180.554 243.158 178.61C243.158 176.642 243.566 174.914 244.382 173.426C245.222 171.914 246.374 170.738 247.838 169.898C249.302 169.034 250.982 168.602 252.878 168.602C254.75 168.602 256.358 169.022 257.702 169.862C259.046 170.678 260.066 171.818 260.762 173.282C261.482 174.722 261.842 176.39 261.842 178.286C261.842 178.742 261.686 179.126 261.374 179.438C261.062 179.726 260.666 179.87 260.186 179.87H246.506C246.77 181.526 247.526 182.882 248.774 183.938C250.046 184.97 251.594 185.486 253.418 185.486C254.162 185.486 254.918 185.354 255.686 185.09C256.478 184.802 257.114 184.478 257.594 184.118C257.954 183.854 258.338 183.722 258.746 183.722C259.178 183.698 259.55 183.818 259.862 184.082C260.27 184.442 260.486 184.838 260.51 185.27C260.534 185.702 260.342 186.074 259.934 186.386C259.118 187.034 258.098 187.562 256.874 187.97C255.674 188.378 254.522 188.582 253.418 188.582ZM252.878 171.698C251.102 171.698 249.674 172.19 248.594 173.174C247.514 174.158 246.83 175.43 246.542 176.99H258.53C258.314 175.454 257.726 174.194 256.766 173.21C255.806 172.202 254.51 171.698 252.878 171.698ZM274.03 188.582C272.278 188.582 270.706 188.15 269.314 187.286C267.922 186.398 266.818 185.21 266.002 183.722C265.21 182.21 264.814 180.506 264.814 178.61C264.814 176.714 265.246 175.01 266.11 173.498C266.998 171.986 268.186 170.798 269.674 169.934C271.186 169.046 272.878 168.602 274.75 168.602C276.622 168.602 278.302 169.046 279.79 169.934C281.278 170.798 282.454 171.986 283.318 173.498C284.206 175.01 284.65 176.714 284.65 178.61V186.638C284.65 187.166 284.47 187.61 284.11 187.97C283.774 188.306 283.342 188.474 282.814 188.474C282.286 188.474 281.842 188.306 281.482 187.97C281.146 187.61 280.978 187.166 280.978 186.638V185.306C280.138 186.314 279.118 187.118 277.918 187.718C276.742 188.294 275.446 188.582 274.03 188.582ZM274.75 185.342C275.974 185.342 277.066 185.054 278.026 184.478C278.986 183.878 279.742 183.074 280.294 182.066C280.846 181.034 281.122 179.882 281.122 178.61C281.122 177.314 280.846 176.162 280.294 175.154C279.742 174.122 278.986 173.318 278.026 172.742C277.066 172.142 275.974 171.842 274.75 171.842C273.55 171.842 272.458 172.142 271.474 172.742C270.514 173.318 269.746 174.122 269.17 175.154C268.618 176.162 268.342 177.314 268.342 178.61C268.342 179.882 268.618 181.034 269.17 182.066C269.746 183.074 270.514 183.878 271.474 184.478C272.458 185.054 273.55 185.342 274.75 185.342ZM291.951 188.474C291.423 188.474 290.979 188.306 290.619 187.97C290.283 187.61 290.115 187.166 290.115 186.638V170.582C290.115 170.03 290.283 169.586 290.619 169.25C290.979 168.914 291.423 168.746 291.951 168.746C292.503 168.746 292.947 168.914 293.283 169.25C293.619 169.586 293.787 170.03 293.787 170.582V170.978C294.531 170.234 295.431 169.646 296.487 169.214C297.543 168.782 298.683 168.566 299.907 168.566C301.563 168.566 303.039 168.926 304.335 169.646C305.655 170.342 306.687 171.374 307.431 172.742C308.199 174.11 308.583 175.79 308.583 177.782V186.638C308.583 187.166 308.403 187.61 308.043 187.97C307.707 188.306 307.275 188.474 306.747 188.474C306.219 188.474 305.775 188.306 305.415 187.97C305.079 187.61 304.911 187.166 304.911 186.638V177.782C304.911 175.742 304.359 174.254 303.255 173.318C302.175 172.358 300.819 171.878 299.187 171.878C298.179 171.878 297.267 172.082 296.451 172.49C295.635 172.898 294.987 173.45 294.507 174.146C294.027 174.818 293.787 175.598 293.787 176.486V186.638C293.787 187.166 293.619 187.61 293.283 187.97C292.947 188.306 292.503 188.474 291.951 188.474ZM316.85 188.438C316.322 188.438 315.878 188.27 315.518 187.934C315.182 187.574 315.014 187.13 315.014 186.602V170.582C315.014 170.03 315.182 169.586 315.518 169.25C315.878 168.914 316.322 168.746 316.85 168.746C317.402 168.746 317.846 168.914 318.182 169.25C318.518 169.586 318.686 170.03 318.686 170.582V186.602C318.686 187.13 318.518 187.574 318.182 187.934C317.846 188.27 317.402 188.438 316.85 188.438ZM316.85 165.542C316.202 165.542 315.638 165.314 315.158 164.858C314.702 164.378 314.474 163.814 314.474 163.166C314.474 162.518 314.702 161.966 315.158 161.51C315.638 161.03 316.202 160.79 316.85 160.79C317.498 160.79 318.05 161.03 318.506 161.51C318.986 161.966 319.226 162.518 319.226 163.166C319.226 163.814 318.986 164.378 318.506 164.858C318.05 165.314 317.498 165.542 316.85 165.542ZM334.445 188.582C332.525 188.582 330.809 188.15 329.297 187.286C327.809 186.398 326.633 185.21 325.769 183.722C324.929 182.21 324.509 180.506 324.509 178.61C324.509 176.666 324.929 174.938 325.769 173.426C326.609 171.914 327.761 170.738 329.225 169.898C330.689 169.034 332.369 168.602 334.265 168.602C337.097 168.602 339.449 169.682 341.321 171.842C341.657 172.226 341.777 172.622 341.681 173.03C341.585 173.438 341.321 173.798 340.889 174.11C340.553 174.35 340.181 174.434 339.773 174.362C339.365 174.266 338.993 174.05 338.657 173.714C337.481 172.466 336.017 171.842 334.265 171.842C332.417 171.842 330.917 172.466 329.765 173.714C328.613 174.938 328.037 176.57 328.037 178.61C328.037 179.906 328.301 181.058 328.829 182.066C329.381 183.074 330.137 183.878 331.097 184.478C332.057 185.054 333.173 185.342 334.445 185.342C336.077 185.342 337.397 184.922 338.405 184.082C338.789 183.77 339.185 183.602 339.593 183.578C340.001 183.53 340.361 183.638 340.673 183.902C341.081 184.238 341.309 184.622 341.357 185.054C341.405 185.462 341.261 185.834 340.925 186.17C339.197 187.778 337.037 188.582 334.445 188.582Z" fill="#93A9CD"/>
</g>
</g>
<defs>
<filter id="filter0_d_7_84" x="46" y="0.245483" width="238.591" height="211.826" filterUnits="userSpaceOnUse" color-interpolation-filters="sRGB">
<feFlood flood-opacity="0" result="BackgroundImageFix"/>
<feColorMatrix in="SourceAlpha" type="matrix" values="0 0 0 0 0 0 0 0 0 0 0 0 0 0 0 0 0 0 127 0" result="hardAlpha"/>
<feOffset dy="4"/>
<feGaussianBlur stdDeviation="2"/>
<feComposite in2="hardAlpha" operator="out"/>
<feColorMatrix type="matrix" values="0 0 0 0 0 0 0 0 0 0 0 0 0 0 0 0 0 0 0.25 0"/>
<feBlend mode="normal" in2="BackgroundImageFix" result="effect1_dropShadow_7_84"/>
<feBlend mode="normal" in="SourceGraphic" in2="effect1_dropShadow_7_84" result="shape"/>
</filter>
<clipPath id="clip0_7_84">
<rect width="154.691" height="153.289" fill="white" transform="matrix(0.77353 0.63376 -0.723684 0.690131 160.932 0.245483)"/>
</clipPath>
</defs>
</svg>
